<mxfile host="65bd71144e">
    <diagram id="U4_985Fw7hNtsL3mQEqS" name="Page-1">
        <mxGraphModel dx="1575" dy="472" grid="1" gridSize="10" guides="1" tooltips="1" connect="1" arrows="1" fold="1" page="1" pageScale="1" pageWidth="827" pageHeight="1169" math="0" shadow="0">
            <root>
                <mxCell id="0"/>
                <mxCell id="1" parent="0"/>
                <mxCell id="16" style="edgeStyle=none;html=1;exitX=1;exitY=0.5;exitDx=0;exitDy=0;entryX=0;entryY=0.5;entryDx=0;entryDy=0;" edge="1" parent="1" source="2" target="6">
                    <mxGeometry relative="1" as="geometry">
                        <mxPoint x="200" y="130" as="targetPoint"/>
                    </mxGeometry>
                </mxCell>
                <mxCell id="2" value="电池&lt;br&gt;Battery" style="rounded=0;whiteSpace=wrap;html=1;" vertex="1" parent="1">
                    <mxGeometry x="80" y="100" width="80" height="40" as="geometry"/>
                </mxCell>
                <mxCell id="17" style="edgeStyle=none;html=1;exitX=1;exitY=0.5;exitDx=0;exitDy=0;entryX=0;entryY=0.5;entryDx=0;entryDy=0;" edge="1" parent="1" source="6" target="7">
                    <mxGeometry relative="1" as="geometry"/>
                </mxCell>
                <mxCell id="6" value="电池输入保护" style="swimlane;" vertex="1" parent="1">
                    <mxGeometry x="200" y="80" width="200" height="80" as="geometry"/>
                </mxCell>
                <mxCell id="3" value="E-transient &lt;br&gt;保护" style="rounded=0;whiteSpace=wrap;html=1;" vertex="1" parent="6">
                    <mxGeometry x="10" y="30" width="80" height="40" as="geometry"/>
                </mxCell>
                <mxCell id="4" value="Reverse battery 保护" style="rounded=0;whiteSpace=wrap;html=1;" vertex="1" parent="6">
                    <mxGeometry x="110" y="30" width="80" height="40" as="geometry"/>
                </mxCell>
                <mxCell id="18" style="edgeStyle=none;html=1;exitX=1;exitY=0.5;exitDx=0;exitDy=0;entryX=0;entryY=0.5;entryDx=0;entryDy=0;" edge="1" parent="1" source="7" target="12">
                    <mxGeometry relative="1" as="geometry"/>
                </mxCell>
                <mxCell id="7" value="电池&amp;系统电力供应" style="swimlane;" vertex="1" parent="1">
                    <mxGeometry x="440" y="80" width="210" height="80" as="geometry"/>
                </mxCell>
                <mxCell id="8" value="Wide Vin buck&lt;br&gt;控制器" style="rounded=0;whiteSpace=wrap;html=1;" vertex="1" parent="7">
                    <mxGeometry x="10" y="30" width="80" height="40" as="geometry"/>
                </mxCell>
                <mxCell id="9" value="Buck" style="rounded=0;whiteSpace=wrap;html=1;" vertex="1" parent="7">
                    <mxGeometry x="110" y="30" width="40" height="40" as="geometry"/>
                </mxCell>
                <mxCell id="10" value="LDO" style="rounded=0;whiteSpace=wrap;html=1;" vertex="1" parent="7">
                    <mxGeometry x="160" y="30" width="40" height="40" as="geometry"/>
                </mxCell>
                <UserObject label="https://www.ti.com.cn/solution/cn/adas-domain-controller?variantid=34354&amp;subsystemid=21326" link="https://www.ti.com.cn/solution/cn/adas-domain-controller?variantid=34354&amp;subsystemid=21326" id="11">
                    <mxCell style="text;whiteSpace=wrap;html=1;" vertex="1" parent="1">
                        <mxGeometry x="190" y="30" width="530" height="30" as="geometry"/>
                    </mxCell>
                </UserObject>
                <mxCell id="31" style="edgeStyle=none;html=1;exitX=0.5;exitY=1;exitDx=0;exitDy=0;entryX=0.5;entryY=0;entryDx=0;entryDy=0;" edge="1" parent="1" source="12" target="19">
                    <mxGeometry relative="1" as="geometry"/>
                </mxCell>
                <mxCell id="12" value="传感器电力 over signal line" style="swimlane;" vertex="1" parent="1">
                    <mxGeometry x="680" y="80" width="210" height="80" as="geometry"/>
                </mxCell>
                <mxCell id="13" value="Buck/boost" style="rounded=0;whiteSpace=wrap;html=1;" vertex="1" parent="12">
                    <mxGeometry x="10" y="30" width="80" height="40" as="geometry"/>
                </mxCell>
                <mxCell id="14" value="High side switch" style="rounded=0;whiteSpace=wrap;html=1;" vertex="1" parent="12">
                    <mxGeometry x="110" y="30" width="70" height="40" as="geometry"/>
                </mxCell>
                <mxCell id="44" style="edgeStyle=none;html=1;exitX=0;exitY=0.25;exitDx=0;exitDy=0;" edge="1" parent="1" source="19">
                    <mxGeometry relative="1" as="geometry">
                        <mxPoint x="410" y="245" as="targetPoint"/>
                    </mxGeometry>
                </mxCell>
                <mxCell id="19" value="原始数据传感器接口" style="swimlane;" vertex="1" parent="1">
                    <mxGeometry x="680" y="200" width="210" height="180" as="geometry"/>
                </mxCell>
                <mxCell id="20" value="SerDes" style="rounded=0;whiteSpace=wrap;html=1;" vertex="1" parent="19">
                    <mxGeometry x="10" y="30" width="70" height="40" as="geometry"/>
                </mxCell>
                <mxCell id="21" value="SerDes" style="rounded=0;whiteSpace=wrap;html=1;" vertex="1" parent="19">
                    <mxGeometry x="10" y="80" width="70" height="40" as="geometry"/>
                </mxCell>
                <mxCell id="23" value="Ethernet&lt;br&gt;/SerDes" style="rounded=0;whiteSpace=wrap;html=1;" vertex="1" parent="19">
                    <mxGeometry x="10" y="130" width="70" height="40" as="geometry"/>
                </mxCell>
                <mxCell id="24" value="ESD" style="rounded=0;whiteSpace=wrap;html=1;" vertex="1" parent="19">
                    <mxGeometry x="90" y="130" width="70" height="40" as="geometry"/>
                </mxCell>
                <mxCell id="25" value="" style="endArrow=classic;html=1;entryX=1;entryY=0.25;entryDx=0;entryDy=0;" edge="1" parent="1">
                    <mxGeometry width="50" height="50" relative="1" as="geometry">
                        <mxPoint x="980" y="268" as="sourcePoint"/>
                        <mxPoint x="890" y="268" as="targetPoint"/>
                        <Array as="points"/>
                    </mxGeometry>
                </mxCell>
                <mxCell id="26" value="SRV&lt;br&gt;cameras" style="text;html=1;strokeColor=none;fillColor=none;align=center;verticalAlign=middle;whiteSpace=wrap;rounded=0;" vertex="1" parent="1">
                    <mxGeometry x="910" y="240" width="40" height="20" as="geometry"/>
                </mxCell>
                <mxCell id="27" value="" style="endArrow=classic;html=1;entryX=1;entryY=0.25;entryDx=0;entryDy=0;" edge="1" parent="1">
                    <mxGeometry width="50" height="50" relative="1" as="geometry">
                        <mxPoint x="980" y="308" as="sourcePoint"/>
                        <mxPoint x="890" y="307.5" as="targetPoint"/>
                        <Array as="points"/>
                    </mxGeometry>
                </mxCell>
                <mxCell id="28" value="Rear/CMS&lt;br&gt;cameras" style="text;html=1;strokeColor=none;fillColor=none;align=center;verticalAlign=middle;whiteSpace=wrap;rounded=0;" vertex="1" parent="1">
                    <mxGeometry x="910" y="280" width="40" height="20" as="geometry"/>
                </mxCell>
                <mxCell id="29" value="" style="endArrow=classic;html=1;entryX=1;entryY=0.25;entryDx=0;entryDy=0;" edge="1" parent="1">
                    <mxGeometry width="50" height="50" relative="1" as="geometry">
                        <mxPoint x="980" y="358" as="sourcePoint"/>
                        <mxPoint x="890" y="357.5" as="targetPoint"/>
                        <Array as="points"/>
                    </mxGeometry>
                </mxCell>
                <mxCell id="30" value="LIDAR/Radar&lt;br&gt;modules" style="text;html=1;strokeColor=none;fillColor=none;align=center;verticalAlign=middle;whiteSpace=wrap;rounded=0;" vertex="1" parent="1">
                    <mxGeometry x="910" y="330" width="40" height="20" as="geometry"/>
                </mxCell>
                <mxCell id="46" style="edgeStyle=none;html=1;exitX=0;exitY=0.25;exitDx=0;exitDy=0;" edge="1" parent="1" source="32">
                    <mxGeometry relative="1" as="geometry">
                        <mxPoint x="406" y="298" as="targetPoint"/>
                    </mxGeometry>
                </mxCell>
                <mxCell id="32" value="传感器数据内存" style="swimlane;" vertex="1" parent="1">
                    <mxGeometry x="440" y="265" width="210" height="130" as="geometry"/>
                </mxCell>
                <mxCell id="33" value="Buck" style="rounded=0;whiteSpace=wrap;html=1;" vertex="1" parent="32">
                    <mxGeometry x="10" y="30" width="70" height="40" as="geometry"/>
                </mxCell>
                <mxCell id="34" value="Term. LDO" style="rounded=0;whiteSpace=wrap;html=1;" vertex="1" parent="32">
                    <mxGeometry x="10" y="80" width="70" height="40" as="geometry"/>
                </mxCell>
                <mxCell id="37" value="Flash" style="rounded=0;whiteSpace=wrap;html=1;" vertex="1" parent="32">
                    <mxGeometry x="90" y="30" width="70" height="40" as="geometry"/>
                </mxCell>
                <mxCell id="38" value="DDR" style="rounded=0;whiteSpace=wrap;html=1;" vertex="1" parent="32">
                    <mxGeometry x="90" y="80" width="70" height="40" as="geometry"/>
                </mxCell>
                <mxCell id="56" style="edgeStyle=none;html=1;entryX=1;entryY=0.5;entryDx=0;entryDy=0;" edge="1" parent="1" target="47">
                    <mxGeometry relative="1" as="geometry">
                        <mxPoint x="280" y="265" as="sourcePoint"/>
                    </mxGeometry>
                </mxCell>
                <mxCell id="39" value="传感器数据处理" style="swimlane;" vertex="1" parent="1">
                    <mxGeometry x="280" y="200" width="126" height="190" as="geometry"/>
                </mxCell>
                <mxCell id="40" value="应用处理器" style="rounded=0;whiteSpace=wrap;html=1;" vertex="1" parent="39">
                    <mxGeometry x="28" y="30" width="70" height="40" as="geometry"/>
                </mxCell>
                <mxCell id="47" value="Video 输出接口" style="swimlane;" vertex="1" parent="1">
                    <mxGeometry x="60" y="200" width="166" height="130" as="geometry"/>
                </mxCell>
                <mxCell id="48" value="SerDes" style="rounded=0;whiteSpace=wrap;html=1;" vertex="1" parent="47">
                    <mxGeometry x="90" y="40" width="70" height="30" as="geometry"/>
                </mxCell>
                <mxCell id="49" value="Ethernet" style="rounded=0;whiteSpace=wrap;html=1;" vertex="1" parent="47">
                    <mxGeometry x="90" y="80" width="70" height="30" as="geometry"/>
                </mxCell>
                <mxCell id="50" value="ESD" style="rounded=0;whiteSpace=wrap;html=1;" vertex="1" parent="47">
                    <mxGeometry x="10" y="40" width="70" height="30" as="geometry"/>
                </mxCell>
                <mxCell id="51" value="" style="endArrow=classic;html=1;" edge="1" parent="1">
                    <mxGeometry width="50" height="50" relative="1" as="geometry">
                        <mxPoint x="60" y="249.5" as="sourcePoint"/>
                        <mxPoint y="249.5" as="targetPoint"/>
                        <Array as="points">
                            <mxPoint x="30" y="249.5"/>
                        </Array>
                    </mxGeometry>
                </mxCell>
                <mxCell id="53" value="Infortainment" style="text;html=1;strokeColor=none;fillColor=none;align=center;verticalAlign=middle;whiteSpace=wrap;rounded=0;" vertex="1" parent="1">
                    <mxGeometry x="-10" y="220" width="40" height="20" as="geometry"/>
                </mxCell>
                <mxCell id="54" value="显示器/记录仪" style="text;html=1;strokeColor=none;fillColor=none;align=center;verticalAlign=middle;whiteSpace=wrap;rounded=0;" vertex="1" parent="1">
                    <mxGeometry x="-10" y="300" width="50" height="20" as="geometry"/>
                </mxCell>
                <mxCell id="55" value="" style="endArrow=classic;html=1;" edge="1" parent="1">
                    <mxGeometry width="50" height="50" relative="1" as="geometry">
                        <mxPoint x="60" y="289.5" as="sourcePoint"/>
                        <mxPoint y="289.5" as="targetPoint"/>
                        <Array as="points">
                            <mxPoint x="30" y="289.5"/>
                        </Array>
                    </mxGeometry>
                </mxCell>
                <mxCell id="57" value="处理器电源供应" style="swimlane;" vertex="1" parent="1">
                    <mxGeometry x="60" y="350" width="166" height="220" as="geometry"/>
                </mxCell>
                <mxCell id="58" value="Load switch" style="rounded=0;whiteSpace=wrap;html=1;" vertex="1" parent="57">
                    <mxGeometry x="88" y="175" width="70" height="30" as="geometry"/>
                </mxCell>
                <mxCell id="60" value="Buck/LDO" style="rounded=0;whiteSpace=wrap;html=1;" vertex="1" parent="57">
                    <mxGeometry x="8" y="175" width="70" height="30" as="geometry"/>
                </mxCell>
                <mxCell id="61" value="Bucks" style="rounded=0;whiteSpace=wrap;html=1;" vertex="1" parent="57">
                    <mxGeometry x="88" y="30" width="70" height="30" as="geometry"/>
                </mxCell>
                <mxCell id="62" value="Supervisor" style="rounded=0;whiteSpace=wrap;html=1;" vertex="1" parent="57">
                    <mxGeometry x="8" y="30" width="70" height="30" as="geometry"/>
                </mxCell>
                <mxCell id="63" value="LDO" style="rounded=0;whiteSpace=wrap;html=1;" vertex="1" parent="57">
                    <mxGeometry x="88" y="70" width="70" height="30" as="geometry"/>
                </mxCell>
                <mxCell id="64" value="Sequencer" style="rounded=0;whiteSpace=wrap;html=1;" vertex="1" parent="57">
                    <mxGeometry x="8" y="70" width="70" height="30" as="geometry"/>
                </mxCell>
                <mxCell id="65" value="Discrete or Integrated PMIC" style="text;html=1;strokeColor=none;fillColor=none;align=center;verticalAlign=middle;whiteSpace=wrap;rounded=0;" vertex="1" parent="57">
                    <mxGeometry x="8" y="110" width="152" height="20" as="geometry"/>
                </mxCell>
                <mxCell id="66" value="" style="endArrow=classic;html=1;" edge="1" parent="1">
                    <mxGeometry width="50" height="50" relative="1" as="geometry">
                        <mxPoint x="226" y="380" as="sourcePoint"/>
                        <mxPoint x="280" y="380" as="targetPoint"/>
                    </mxGeometry>
                </mxCell>
                <mxCell id="67" value="高电能核心供应" style="swimlane;" vertex="1" parent="1">
                    <mxGeometry x="60" y="585" width="166" height="85" as="geometry"/>
                </mxCell>
                <mxCell id="68" value="电能stages" style="rounded=0;whiteSpace=wrap;html=1;" vertex="1" parent="67">
                    <mxGeometry x="90" y="40" width="70" height="30" as="geometry"/>
                </mxCell>
                <mxCell id="70" value="多阶段控制器" style="rounded=0;whiteSpace=wrap;html=1;" vertex="1" parent="67">
                    <mxGeometry x="10" y="40" width="70" height="30" as="geometry"/>
                </mxCell>
                <mxCell id="82" style="edgeStyle=none;html=1;exitX=1;exitY=0.25;exitDx=0;exitDy=0;" edge="1" parent="1" source="71">
                    <mxGeometry relative="1" as="geometry">
                        <mxPoint x="440" y="550" as="targetPoint"/>
                    </mxGeometry>
                </mxCell>
                <mxCell id="84" style="edgeStyle=none;html=1;exitX=0.5;exitY=0;exitDx=0;exitDy=0;entryX=0.5;entryY=1;entryDx=0;entryDy=0;startArrow=classic;startFill=1;" edge="1" parent="1" source="71" target="39">
                    <mxGeometry relative="1" as="geometry"/>
                </mxCell>
                <mxCell id="108" style="edgeStyle=none;html=1;exitX=0.25;exitY=1;exitDx=0;exitDy=0;startArrow=classic;startFill=1;" edge="1" parent="1" source="71">
                    <mxGeometry relative="1" as="geometry">
                        <mxPoint x="213" y="709" as="targetPoint"/>
                        <Array as="points">
                            <mxPoint x="310" y="690"/>
                            <mxPoint x="213" y="690"/>
                        </Array>
                    </mxGeometry>
                </mxCell>
                <mxCell id="125" style="edgeStyle=none;html=1;exitX=0.75;exitY=1;exitDx=0;exitDy=0;entryX=0.25;entryY=0;entryDx=0;entryDy=0;startArrow=classic;startFill=1;" edge="1" parent="1" source="71" target="109">
                    <mxGeometry relative="1" as="geometry"/>
                </mxCell>
                <mxCell id="71" value="Fusion &amp; 对象数据处理" style="swimlane;" vertex="1" parent="1">
                    <mxGeometry x="278" y="515" width="130" height="140" as="geometry"/>
                </mxCell>
                <mxCell id="73" value="传感器fusion 和对象识别处理器" style="rounded=0;whiteSpace=wrap;html=1;" vertex="1" parent="71">
                    <mxGeometry x="15" y="40" width="100" height="50" as="geometry"/>
                </mxCell>
                <mxCell id="74" value="" style="endArrow=classic;html=1;entryX=0;entryY=0.25;entryDx=0;entryDy=0;" edge="1" parent="1" target="71">
                    <mxGeometry width="50" height="50" relative="1" as="geometry">
                        <mxPoint x="230" y="550" as="sourcePoint"/>
                        <mxPoint x="470" y="500" as="targetPoint"/>
                    </mxGeometry>
                </mxCell>
                <mxCell id="75" value="" style="endArrow=classic;html=1;entryX=0;entryY=0.25;entryDx=0;entryDy=0;" edge="1" parent="1">
                    <mxGeometry width="50" height="50" relative="1" as="geometry">
                        <mxPoint x="230" y="620" as="sourcePoint"/>
                        <mxPoint x="280" y="620" as="targetPoint"/>
                    </mxGeometry>
                </mxCell>
                <mxCell id="76" value="Fusion &amp; Object 数据内存" style="swimlane;" vertex="1" parent="1">
                    <mxGeometry x="440" y="430" width="210" height="140" as="geometry"/>
                </mxCell>
                <mxCell id="78" value="Buck" style="rounded=0;whiteSpace=wrap;html=1;" vertex="1" parent="76">
                    <mxGeometry x="30" y="35" width="70" height="40" as="geometry"/>
                </mxCell>
                <mxCell id="79" value="Term. LDO" style="rounded=0;whiteSpace=wrap;html=1;" vertex="1" parent="76">
                    <mxGeometry x="30" y="85" width="70" height="40" as="geometry"/>
                </mxCell>
                <mxCell id="80" value="Flash" style="rounded=0;whiteSpace=wrap;html=1;" vertex="1" parent="76">
                    <mxGeometry x="110" y="35" width="70" height="40" as="geometry"/>
                </mxCell>
                <mxCell id="81" value="DDR" style="rounded=0;whiteSpace=wrap;html=1;" vertex="1" parent="76">
                    <mxGeometry x="110" y="85" width="70" height="40" as="geometry"/>
                </mxCell>
                <mxCell id="97" style="edgeStyle=none;html=1;exitX=0;exitY=0.75;exitDx=0;exitDy=0;startArrow=classic;startFill=1;" edge="1" parent="1" source="85">
                    <mxGeometry relative="1" as="geometry">
                        <mxPoint x="410" y="605" as="targetPoint"/>
                    </mxGeometry>
                </mxCell>
                <mxCell id="85" value="对象数据传感器接口" style="swimlane;" vertex="1" parent="1">
                    <mxGeometry x="680" y="500" width="210" height="140" as="geometry"/>
                </mxCell>
                <mxCell id="86" value="Ethernet" style="rounded=0;whiteSpace=wrap;html=1;" vertex="1" parent="85">
                    <mxGeometry x="30" y="35" width="70" height="40" as="geometry"/>
                </mxCell>
                <mxCell id="87" value="CAN" style="rounded=0;whiteSpace=wrap;html=1;" vertex="1" parent="85">
                    <mxGeometry x="30" y="85" width="70" height="40" as="geometry"/>
                </mxCell>
                <mxCell id="88" value="ESD" style="rounded=0;whiteSpace=wrap;html=1;" vertex="1" parent="85">
                    <mxGeometry x="110" y="35" width="70" height="40" as="geometry"/>
                </mxCell>
                <mxCell id="89" value="ESD" style="rounded=0;whiteSpace=wrap;html=1;" vertex="1" parent="85">
                    <mxGeometry x="110" y="85" width="70" height="40" as="geometry"/>
                </mxCell>
                <mxCell id="90" value="" style="endArrow=classic;html=1;entryX=1;entryY=0.25;entryDx=0;entryDy=0;" edge="1" parent="1">
                    <mxGeometry width="50" height="50" relative="1" as="geometry">
                        <mxPoint x="980" y="538.75" as="sourcePoint"/>
                        <mxPoint x="890" y="538.75" as="targetPoint"/>
                        <Array as="points"/>
                    </mxGeometry>
                </mxCell>
                <mxCell id="91" value="LIDAR/Radar&lt;br&gt;ultrasonic&lt;br&gt;modules" style="text;html=1;strokeColor=none;fillColor=none;align=center;verticalAlign=middle;whiteSpace=wrap;rounded=0;" vertex="1" parent="1">
                    <mxGeometry x="910" y="505.75" width="40" height="20" as="geometry"/>
                </mxCell>
                <mxCell id="94" value="" style="endArrow=classic;html=1;entryX=1;entryY=0.25;entryDx=0;entryDy=0;" edge="1" parent="1">
                    <mxGeometry width="50" height="50" relative="1" as="geometry">
                        <mxPoint x="980" y="628.75" as="sourcePoint"/>
                        <mxPoint x="890" y="628.25" as="targetPoint"/>
                        <Array as="points"/>
                    </mxGeometry>
                </mxCell>
                <mxCell id="95" value="LIDAR/Radar&lt;br&gt;modules" style="text;html=1;strokeColor=none;fillColor=none;align=center;verticalAlign=middle;whiteSpace=wrap;rounded=0;" vertex="1" parent="1">
                    <mxGeometry x="910" y="600.75" width="40" height="20" as="geometry"/>
                </mxCell>
                <mxCell id="98" value="车辆接口" style="swimlane;" vertex="1" parent="1">
                    <mxGeometry x="60" y="710" width="166" height="130" as="geometry"/>
                </mxCell>
                <mxCell id="99" value="Ethernet" style="rounded=0;whiteSpace=wrap;html=1;" vertex="1" parent="98">
                    <mxGeometry x="90" y="40" width="70" height="30" as="geometry"/>
                </mxCell>
                <mxCell id="100" value="ESD" style="rounded=0;whiteSpace=wrap;html=1;" vertex="1" parent="98">
                    <mxGeometry x="10" y="40" width="70" height="30" as="geometry"/>
                </mxCell>
                <mxCell id="101" value="CAN" style="rounded=0;whiteSpace=wrap;html=1;" vertex="1" parent="98">
                    <mxGeometry x="10" y="80" width="70" height="30" as="geometry"/>
                </mxCell>
                <mxCell id="102" value="Boost" style="rounded=0;whiteSpace=wrap;html=1;" vertex="1" parent="98">
                    <mxGeometry x="90" y="80" width="70" height="30" as="geometry"/>
                </mxCell>
                <mxCell id="103" value="" style="endArrow=classic;html=1;" edge="1" parent="1">
                    <mxGeometry width="50" height="50" relative="1" as="geometry">
                        <mxPoint x="60" y="769.5" as="sourcePoint"/>
                        <mxPoint y="769.5" as="targetPoint"/>
                        <Array as="points">
                            <mxPoint x="30" y="769.5"/>
                        </Array>
                    </mxGeometry>
                </mxCell>
                <mxCell id="104" value="诊断/数据" style="text;html=1;strokeColor=none;fillColor=none;align=center;verticalAlign=middle;whiteSpace=wrap;rounded=0;" vertex="1" parent="1">
                    <mxGeometry x="1" y="740" width="40" height="20" as="geometry"/>
                </mxCell>
                <mxCell id="105" value="车辆网络" style="text;html=1;strokeColor=none;fillColor=none;align=center;verticalAlign=middle;whiteSpace=wrap;rounded=0;" vertex="1" parent="1">
                    <mxGeometry x="-10" y="820" width="70" height="20" as="geometry"/>
                </mxCell>
                <mxCell id="106" value="" style="endArrow=classic;html=1;" edge="1" parent="1">
                    <mxGeometry width="50" height="50" relative="1" as="geometry">
                        <mxPoint x="60" y="809.5" as="sourcePoint"/>
                        <mxPoint y="809.5" as="targetPoint"/>
                        <Array as="points">
                            <mxPoint x="30" y="809.5"/>
                        </Array>
                    </mxGeometry>
                </mxCell>
                <mxCell id="120" style="edgeStyle=none;html=1;exitX=0;exitY=0.5;exitDx=0;exitDy=0;entryX=1;entryY=0.5;entryDx=0;entryDy=0;startArrow=classic;startFill=1;" edge="1" parent="1" source="109" target="98">
                    <mxGeometry relative="1" as="geometry"/>
                </mxCell>
                <mxCell id="109" value="Safety &amp; System control" style="swimlane;" vertex="1" parent="1">
                    <mxGeometry x="291" y="735" width="345" height="80" as="geometry"/>
                </mxCell>
                <mxCell id="110" value="ADC&lt;br&gt;reference" style="rounded=0;whiteSpace=wrap;html=1;" vertex="1" parent="109">
                    <mxGeometry x="95" y="40" width="70" height="30" as="geometry"/>
                </mxCell>
                <mxCell id="111" value="安全MCU" style="rounded=0;whiteSpace=wrap;html=1;" vertex="1" parent="109">
                    <mxGeometry x="10" y="40" width="70" height="30" as="geometry"/>
                </mxCell>
                <mxCell id="112" value="Signal level translation &amp;amp; buffering" style="rounded=0;whiteSpace=wrap;html=1;" vertex="1" parent="109">
                    <mxGeometry x="182" y="40" width="150" height="30" as="geometry"/>
                </mxCell>
                <mxCell id="119" style="edgeStyle=none;html=1;exitX=0;exitY=0.5;exitDx=0;exitDy=0;entryX=1;entryY=0.5;entryDx=0;entryDy=0;startArrow=none;startFill=0;" edge="1" parent="1" source="115" target="109">
                    <mxGeometry relative="1" as="geometry"/>
                </mxCell>
                <mxCell id="115" value="Safety power" style="swimlane;" vertex="1" parent="1">
                    <mxGeometry x="724" y="710" width="166" height="130" as="geometry"/>
                </mxCell>
                <mxCell id="116" value="LDO" style="rounded=0;whiteSpace=wrap;html=1;" vertex="1" parent="115">
                    <mxGeometry x="90" y="40" width="70" height="30" as="geometry"/>
                </mxCell>
                <mxCell id="117" value="Wide Vin&lt;br&gt;buck/PMIC" style="rounded=0;whiteSpace=wrap;html=1;" vertex="1" parent="115">
                    <mxGeometry x="10" y="40" width="70" height="30" as="geometry"/>
                </mxCell>
                <mxCell id="118" value="Supervisor" style="rounded=0;whiteSpace=wrap;html=1;" vertex="1" parent="115">
                    <mxGeometry x="10" y="80" width="150" height="30" as="geometry"/>
                </mxCell>
                <mxCell id="121" value="诊断和监控" style="swimlane;" vertex="1" parent="1">
                    <mxGeometry x="210" y="890" width="550" height="80" as="geometry"/>
                </mxCell>
                <mxCell id="122" value="ADC" style="rounded=0;whiteSpace=wrap;html=1;" vertex="1" parent="121">
                    <mxGeometry x="95" y="40" width="70" height="30" as="geometry"/>
                </mxCell>
                <mxCell id="123" value="Voltage supervisor" style="rounded=0;whiteSpace=wrap;html=1;" vertex="1" parent="121">
                    <mxGeometry x="10" y="40" width="70" height="30" as="geometry"/>
                </mxCell>
                <mxCell id="126" value="Reference" style="rounded=0;whiteSpace=wrap;html=1;" vertex="1" parent="121">
                    <mxGeometry x="180" y="40" width="70" height="30" as="geometry"/>
                </mxCell>
                <mxCell id="127" value="Temp sensor" style="rounded=0;whiteSpace=wrap;html=1;" vertex="1" parent="121">
                    <mxGeometry x="270" y="40" width="70" height="30" as="geometry"/>
                </mxCell>
                <mxCell id="128" value="Sequencer" style="rounded=0;whiteSpace=wrap;html=1;" vertex="1" parent="121">
                    <mxGeometry x="360" y="40" width="70" height="30" as="geometry"/>
                </mxCell>
                <mxCell id="129" value="Control signal logic" style="rounded=0;whiteSpace=wrap;html=1;" vertex="1" parent="121">
                    <mxGeometry x="440" y="40" width="70" height="30" as="geometry"/>
                </mxCell>
            </root>
        </mxGraphModel>
    </diagram>
</mxfile>